<svg width="36" height="36" viewBox="0 0 36 36" fill="none" xmlns="http://www.w3.org/2000/svg">
<path d="M13.5 28.5V9L31.5 4.5V24M13.5 28.5C13.5 30.1569 11.4853 31.5 9 31.5C6.51472 31.5 4.5 30.1569 4.5 28.5C4.5 26.8431 6.51472 25.5 9 25.5C11.4853 25.5 13.5 26.8431 13.5 28.5ZM31.5 24C31.5 25.6569 29.4853 27 27 27C24.5147 27 22.5 25.6569 22.5 24C22.5 22.3431 24.5147 21 27 21C29.4853 21 31.5 22.3431 31.5 24ZM13.5 15L31.5 10.5" stroke="#34A8FF" stroke-width="2" stroke-linecap="round" stroke-linejoin="round"/>
</svg>
