<svg width="247" height="21" viewBox="0 0 247 21" fill="none" xmlns="http://www.w3.org/2000/svg">
<path opacity="0.1" fill-rule="evenodd" clip-rule="evenodd" d="M104 9H0.5V10H104V9ZM142 10H246.5V9H142V10Z" fill="white"/>
<path d="M120.525 15.117C119.858 15.117 119.251 14.9653 118.705 14.662C118.168 14.3587 117.743 13.9297 117.431 13.375C117.128 12.8117 116.976 12.1617 116.976 11.425C116.976 10.697 117.132 10.0557 117.444 9.501C117.765 8.93767 118.198 8.50867 118.744 8.214C119.29 7.91067 119.901 7.759 120.577 7.759C121.253 7.759 121.864 7.91067 122.41 8.214C122.956 8.50867 123.385 8.93333 123.697 9.488C124.018 10.0427 124.178 10.6883 124.178 11.425C124.178 12.1617 124.014 12.8117 123.684 13.375C123.364 13.9297 122.926 14.3587 122.371 14.662C121.817 14.9653 121.201 15.117 120.525 15.117ZM120.525 14.077C120.95 14.077 121.349 13.9773 121.721 13.778C122.094 13.5787 122.393 13.2797 122.618 12.881C122.852 12.4823 122.969 11.997 122.969 11.425C122.969 10.853 122.857 10.3677 122.631 9.969C122.406 9.57033 122.111 9.27567 121.747 9.085C121.383 8.88567 120.989 8.786 120.564 8.786C120.131 8.786 119.732 8.88567 119.368 9.085C119.013 9.27567 118.727 9.57033 118.51 9.969C118.294 10.3677 118.185 10.853 118.185 11.425C118.185 12.0057 118.289 12.4953 118.497 12.894C118.714 13.2927 119 13.5917 119.355 13.791C119.711 13.9817 120.101 14.077 120.525 14.077ZM126.917 9.033C127.125 8.62567 127.42 8.30933 127.801 8.084C128.191 7.85867 128.663 7.746 129.218 7.746V8.968H128.906C127.58 8.968 126.917 9.68733 126.917 11.126V15H125.734V7.876H126.917V9.033Z" fill="white"/>
</svg>
