<svg width="175" height="120" viewBox="0 0 175 120" fill="none" xmlns="http://www.w3.org/2000/svg">
<defs>
<filter id="filter0_d_1619_468" x="6.63037" y="-3.50977" width="159.7" height="117.916" filterUnits="userSpaceOnUse" color-interpolation-filters="sRGB">
<feFlood flood-opacity="0" result="BackgroundImageFix"/>
<feColorMatrix in="SourceAlpha" type="matrix" values="0 0 0 0 0 0 0 0 0 0 0 0 0 0 0 0 0 0 127 0" result="hardAlpha"/>
<feOffset dy="11"/>
<feGaussianBlur stdDeviation="11"/>
<feColorMatrix type="matrix" values="0 0 0 0 0.397708 0 0 0 0 0.47749 0 0 0 0 0.575 0 0 0 0.27 0"/>
<feBlend mode="normal" in2="BackgroundImageFix" result="effect1_dropShadow_1619_468"/>
<feBlend mode="normal" in="SourceGraphic" in2="effect1_dropShadow_1619_468" result="shape"/>
</filter>
<linearGradient id="paint0_linear_1619_468" x1="86.4804" y1="38.035" x2="86.4427" y2="82.2026" gradientUnits="userSpaceOnUse">
<stop stop-color="white"/>
<stop offset="0.9964" stop-color="#ECF0F5"/>
</linearGradient>
<linearGradient id="paint1_linear_1619_468" x1="100.306" y1="35.3216" x2="118.834" y2="55.5853" gradientUnits="userSpaceOnUse">
<stop stop-color="#BCCBE1"/>
<stop offset="0.9942" stop-color="white" stop-opacity="0"/>
</linearGradient>
<linearGradient id="paint2_linear_1619_468" x1="48.647" y1="27.4762" x2="77.8482" y2="38.9035" gradientUnits="userSpaceOnUse">
<stop stop-color="#E2E8F0"/>
<stop offset="0.9942" stop-color="white" stop-opacity="0"/>
</linearGradient>
<clipPath id="clip0_1619_468">
<rect width="175" height="120" fill="white"/>
</clipPath>
</defs>
    <g clip-path="url(#clip0_1619_468)">
        <path d="M86.8304 107.5C116.53 107.5 140.73 83.4 140.73 53.8C140.63 24.1 116.53 0 86.8304 0C57.0304 0 32.9304 24.1 32.9304 53.7C32.9304 83.4 57.0304 107.5 86.8304 107.5Z" fill="#60729B"/>
        <g filter="url(#filter0_d_1619_468)">
            <path d="M144.33 60.5998C144.33 72.0998 135.03 81.3998 123.43 81.3998C123.23 81.3998 121.53 81.3998 109.03 81.3998C100.33 81.3998 86.4304 81.3998 64.2304 81.3998H53.6304C39.7304 81.6998 28.6304 70.5998 28.6304 57.1998C28.6304 43.6998 39.8304 32.4998 53.9304 33.1998C66.0304 -4.60016 121.43 0.699837 126.13 39.7998C136.53 41.0998 144.33 49.8998 144.33 60.5998Z" fill="url(#paint0_linear_1619_468)"/>
        </g>
        <path d="M123.43 81.3998C134.93 81.3998 144.33 72.0998 144.33 60.5998C144.33 49.0998 134.93 39.7998 123.43 39.7998C111.93 39.7998 102.53 49.0998 102.53 60.5998C102.53 72.0998 111.93 81.3998 123.43 81.3998Z" fill="url(#paint1_linear_1619_468)"/>
        <path d="M89.3304 81.6004C109.83 81.6004 126.53 65.0004 126.53 44.5004C126.53 24.0004 109.83 7.40039 89.3304 7.40039C68.8304 7.40039 52.1304 24.0004 52.1304 44.5004C52.1304 65.0004 68.7304 81.6004 89.3304 81.6004Z" fill="url(#paint2_linear_1619_468)"/>
        <path d="M75.5716 54.0192C77.1462 54.0192 78.4786 52.6868 78.4786 51.1121C78.4786 49.5375 77.1462 48.2051 75.5716 48.2051C73.9969 48.2051 72.6646 49.5375 72.6646 51.1121C72.6646 52.6868 73.9969 54.0192 75.5716 54.0192Z" fill="#989FB0"/>
        <path d="M97.8589 54.0192C99.4336 54.0192 100.766 52.6868 100.766 51.1121C100.766 49.5375 99.4336 48.2051 97.8589 48.2051C96.2843 48.2051 94.9519 49.5375 94.9519 51.1121C94.9519 52.8079 96.2843 54.0192 97.8589 54.0192Z" fill="#989FB0"/>
        <path d="M75.458 41.4945L69.0632 44.9473L69.9264 46.546L76.3212 43.0931L75.458 41.4945Z" fill="#989FB0"/>
        <path d="M97.4635 41.448L96.6005 43.0469L102.996 46.499L103.859 44.9001L97.4635 41.448Z" fill="#989FB0"/>
        <path d="M86.7153 60.8022C88.5884 60.8022 90.1068 59.6633 90.1068 58.2585C90.1068 56.8537 88.5884 55.7148 86.7153 55.7148C84.8422 55.7148 83.3237 56.8537 83.3237 58.2585C83.3237 59.6633 84.8422 60.8022 86.7153 60.8022Z" fill="#989FB0"/>
        <path d="M17.0851 14.3555C17.0851 14.3555 3.10654 17.9046 7.34246 20.7439C11.5784 23.4412 21.6034 28.126 31.0636 25.0028C40.5239 21.8796 31.0636 17.4787 31.2048 17.4787C31.346 17.4787 17.0851 14.3555 17.0851 14.3555Z" fill="#7083AC"/>
        <path d="M0 13.2194C5.08311 14.781 20.756 12.2257 30.781 5.69531C38.6881 15.4908 41.6532 18.0462 44.4772 18.3301C40.1001 22.731 25.5567 29.8292 17.3673 20.6015C7.76586 26.706 0 13.2194 0 13.2194Z" fill="#61749E"/>
        <path d="M130.069 48.7162C135.435 49.0001 149.978 42.4697 157.885 33.668C168.051 41.1921 171.44 42.8956 174.405 42.4697C171.158 47.8644 161.274 59.6474 147.295 60.4992C137.129 54.5367 130.069 48.7162 130.069 48.7162Z" fill="#61749E"/>
        <path d="M87.2385 115.307C86.177 110.04 76.2298 97.5819 65.7359 92.1166C70.4904 80.3966 71.2962 76.6903 70.1451 73.9247C76.1786 75.7261 90.0523 82.3633 94.3592 95.689C91.117 107.02 87.2385 115.307 87.2385 115.307Z" fill="#929CBB"/>
    </g>
</svg>
