<svg width="48" height="48" viewBox="0 0 48 48" fill="none" xmlns="http://www.w3.org/2000/svg">
<path fill-rule="evenodd" clip-rule="evenodd" d="M4.66338 25.6392C5.43382 34.5113 12.4435 41.6637 21.5071 42.8256C30.5705 43.9875 39.2417 38.8454 42.343 30.4696C45.4443 22.0938 42.1388 12.7448 34.4001 8.00494C26.6614 3.26507 16.5781 4.4135 10.171 10.7645H16.2255C17.2966 10.7645 18.1648 11.6102 18.1648 12.6534V12.6534C18.1648 13.6966 17.2966 14.5422 16.2255 14.5422H8.19097C6.20247 14.5412 4.59075 12.9714 4.58969 11.0346V3.20916C4.58969 2.16598 5.45794 1.32031 6.52897 1.32031V1.32031C7.60003 1.32031 8.46828 2.16598 8.46828 3.20916V7.13417C16.4982 0.145538 28.4053 -0.555595 37.2412 5.43994C46.0771 11.4355 49.5274 22.5574 45.5787 32.3153C41.6301 42.0733 31.3166 47.9116 20.6569 46.4232C9.99716 44.9348 1.78308 36.5096 0.808056 26.0641C0.757428 25.5323 0.93869 25.0042 1.30759 24.609C1.67647 24.2138 2.19899 23.9878 2.74737 23.9864V23.9864C3.72759 23.9749 4.55667 24.6901 4.66338 25.6392V25.6392Z" fill="white"/>
<path d="M24.9019 23.2106C24.9019 21.6052 25.1492 20.3592 25.6439 19.4726C26.1385 18.5859 27.0252 18.1426 28.3039 18.1426C29.5825 18.1426 30.4692 18.5859 30.9639 19.4726C31.4585 20.3592 31.7059 21.6052 31.7059 23.2106C31.7059 24.8439 31.4585 26.1086 30.9639 27.0046C30.4692 27.9006 29.5825 28.3486 28.3039 28.3486C27.0159 28.3486 26.1245 27.9006 25.6299 27.0046C25.1445 26.1086 24.9019 24.8439 24.9019 23.2106ZM30.7399 23.2106C30.7399 22.3426 30.6792 21.6099 30.5579 21.0126C30.4365 20.4152 30.1985 19.9346 29.8439 19.5706C29.4892 19.2066 28.9759 19.0246 28.3039 19.0246C27.6319 19.0246 27.1185 19.2066 26.7639 19.5706C26.4092 19.9346 26.1712 20.4152 26.0499 21.0126C25.9285 21.6099 25.8679 22.3426 25.8679 23.2106C25.8679 24.1066 25.9285 24.8579 26.0499 25.4646C26.1712 26.0619 26.4092 26.5426 26.7639 26.9066C27.1185 27.2706 27.6319 27.4526 28.3039 27.4526C28.9759 27.4526 29.4892 27.2706 29.8439 26.9066C30.1985 26.5426 30.4365 26.0619 30.5579 25.4646C30.6792 24.8579 30.7399 24.1066 30.7399 23.2106Z" fill="white"/>
<path d="M16.6943 27.5512C18.4117 26.2632 19.737 25.1106 20.6703 24.0932C21.613 23.0666 22.0843 22.0632 22.0843 21.0832C22.0843 20.4392 21.921 19.9259 21.5943 19.5432C21.277 19.1512 20.7543 18.9552 20.0263 18.9552C19.317 18.9552 18.7663 19.1792 18.3743 19.6272C17.9917 20.0659 17.777 20.6539 17.7303 21.3912H16.7783C16.8343 20.3552 17.1517 19.5526 17.7303 18.9832C18.3183 18.4046 19.0837 18.1152 20.0263 18.1152C20.9317 18.1152 21.6643 18.3719 22.2243 18.8852C22.7843 19.3892 23.0643 20.1079 23.0643 21.0412C23.0643 22.1706 22.593 23.2672 21.6503 24.3312C20.717 25.3859 19.5643 26.4172 18.1923 27.4252H23.3723V28.2512H16.6943V27.5512Z" fill="white"/>
</svg>
