<svg width="60" height="60" viewBox="0 0 60 60" fill="none" xmlns="http://www.w3.org/2000/svg">
<path fill-rule="evenodd" clip-rule="evenodd" d="M43.876 31.6187C43.9269 27.6542 46.0045 23.9929 49.3818 21.9173C47.2427 18.8602 43.7848 16.9924 40.0556 16.8758C36.1314 16.4645 32.328 19.2227 30.3288 19.2227C28.2914 19.2227 25.2131 16.9161 21.8973 16.9839C17.5364 17.126 13.5676 19.545 11.4454 23.359C6.92757 31.182 10.2964 42.6812 14.6255 49.0053C16.7922 52.1027 19.3214 55.5606 22.6351 55.4397C25.8767 55.3062 27.0872 53.3727 30.9987 53.3727C34.8742 53.3727 36.0106 55.4397 39.3899 55.3613C42.8668 55.3041 45.059 52.2512 47.1494 49.1241C48.7055 46.9171 49.9033 44.479 50.6962 41.8989C46.5664 40.152 43.8802 36.1048 43.876 31.6187Z" fill="white"/>
<path fill-rule="evenodd" clip-rule="evenodd" d="M37.4925 12.7159C39.3878 10.439 40.3228 7.51331 40.0959 4.56006C37.1999 4.86535 34.5223 6.24975 32.6015 8.43765C30.7041 10.598 29.7415 13.4219 29.9281 16.2925C32.8644 16.3222 35.6523 15.0035 37.4925 12.7159V12.7159Z" fill="white"/>
</svg>
