<svg width="36" height="37" viewBox="0 0 36 37" fill="none" xmlns="http://www.w3.org/2000/svg">
<path fill-rule="evenodd" clip-rule="evenodd" d="M18.0001 1.1614C15.7279 1.1614 13.5242 1.61099 11.4502 2.49766C9.44551 3.35469 7.64469 4.58205 6.09773 6.14565C4.54991 7.71011 3.33473 9.53184 2.48592 11.5602C1.60703 13.6605 1.1614 15.8923 1.1614 18.1937C1.1614 20.4951 1.60703 22.7269 2.48592 24.8272C3.33473 26.8556 4.54991 28.6773 6.09773 30.2418C7.64469 31.8054 9.44552 33.0328 11.4502 33.8898C13.5242 34.7765 15.7279 35.2261 18.0001 35.2261C20.2723 35.2261 22.476 34.7765 24.55 33.8898C26.5547 33.0328 28.3555 31.8054 29.9025 30.2418C31.4503 28.6773 32.6655 26.8556 33.5143 24.8272C34.3932 22.7269 34.8388 20.4951 34.8388 18.1937C34.8388 15.8923 34.3932 13.6605 33.5143 11.5602C32.6655 9.53184 31.4503 7.71011 29.9025 6.14565C28.3555 4.58204 26.5547 3.35468 24.55 2.49766C22.476 1.61099 20.2723 1.1614 18.0001 1.1614M18 0C27.9411 0 36 8.14556 36 18.1936C36 28.2417 27.9411 36.3872 18 36.3872C8.05887 36.3872 0 28.2417 0 18.1936C0 8.14557 8.05887 0 18 0Z" fill="white"/>
<path fill-rule="evenodd" clip-rule="evenodd" d="M11.3223 16.986C12.1892 16.986 12.8919 15.959 12.8919 14.692C12.8919 13.425 12.1892 12.3979 11.3223 12.3979C10.4554 12.3979 9.75269 13.425 9.75269 14.692C9.75269 15.959 10.4554 16.986 11.3223 16.986Z" fill="white"/>
<path fill-rule="evenodd" clip-rule="evenodd" d="M24.844 16.986C25.7109 16.986 26.4136 15.959 26.4136 14.692C26.4136 13.425 25.7109 12.3979 24.844 12.3979C23.9772 12.3979 23.2744 13.425 23.2744 14.692C23.2744 15.959 23.9772 16.986 24.844 16.986Z" fill="white"/>
<path fill-rule="evenodd" clip-rule="evenodd" d="M11.2732 25.2209H24.7274H11.2732Z" stroke="white" stroke-width="1.5" stroke-linecap="round"/>
</svg>
