<svg width="38" height="38" viewBox="0 0 38 38" fill="none" xmlns="http://www.w3.org/2000/svg">
<path fill-rule="evenodd" clip-rule="evenodd" d="M17.4069 19.8763C17.1738 19.6451 17.0426 19.3303 17.0426 19.0019C17.0426 18.6735 17.1738 18.3588 17.4069 18.1275L23.0599 12.4869C23.293 12.2556 23.4242 11.9408 23.4242 11.6124C23.4242 11.284 23.293 10.9693 23.0599 10.738C22.5795 10.2605 21.8037 10.2605 21.3233 10.738L15.6704 16.391C14.2297 17.8335 14.2297 20.1704 15.6704 21.6129L21.3233 27.2658C21.5527 27.4934 21.8624 27.6216 22.1855 27.623C22.5128 27.6249 22.8275 27.4964 23.0599 27.2658C23.293 27.0346 23.4242 26.7198 23.4242 26.3914C23.4242 26.063 23.293 25.7482 23.0599 25.517L17.4069 19.8763Z" fill="white"/>
</svg>
