<svg width="20" height="20" viewBox="0 0 20 20" fill="none" xmlns="http://www.w3.org/2000/svg">
<path fill-rule="evenodd" clip-rule="evenodd" d="M16.7819 1.76221C17.5835 1.76221 18.2379 2.41893 18.2379 3.22065V16.7792C18.2379 17.5832 17.5835 18.2376 16.7819 18.2376H3.22043C2.41645 18.2376 1.76449 17.5832 1.76449 16.7792V3.22065C1.76449 2.41893 2.41645 1.76221 3.22043 1.76221H16.7819V1.76221ZM16.7819 0H3.22044C1.44198 0 0 1.4421 0 3.22076V16.7793C0 18.558 1.44198 20 3.22044 20H16.7819C18.5581 20 20 18.558 20 16.7793V3.22076C20 1.4421 18.5581 0 16.7819 0Z" fill="#34A8FF"/>
<path fill-rule="evenodd" clip-rule="evenodd" d="M8.87296 13.3584V13.3584C8.63687 13.3584 8.41957 13.2766 8.25358 13.106L5.76002 10.6122C5.42114 10.2709 5.42114 9.72163 5.76002 9.37808C6.10362 9.03447 6.65743 9.03447 6.99867 9.37808L8.87296 11.2456L13.2221 6.90059C13.5655 6.55462 14.1218 6.55462 14.463 6.90059C14.8019 7.23947 14.8019 7.79109 14.463 8.13697L9.49458 13.106C9.32859 13.2766 9.1067 13.3584 8.87296 13.3584Z" fill="#34A8FF"/>
</svg>
