<svg width="22" height="22" viewBox="0 0 22 22" fill="none" xmlns="http://www.w3.org/2000/svg">
<path fill-rule="evenodd" clip-rule="evenodd" d="M11.3154 13.1672C11.1169 13.3673 10.8466 13.4799 10.5647 13.4799C10.2827 13.4799 10.0124 13.3673 9.81385 13.1672L4.9707 8.31343C4.77215 8.11324 4.50186 8.00064 4.21991 8.00064C3.93795 8.00064 3.66767 8.11324 3.46912 8.31343C3.05912 8.72588 3.05912 9.39199 3.46912 9.80443L8.32285 14.6582C9.56142 15.8952 11.5679 15.8952 12.8065 14.6582L17.6602 9.80443C17.8556 9.60747 17.9657 9.34164 17.9669 9.06422C17.9685 8.78315 17.8581 8.51299 17.6602 8.31343C17.4617 8.11324 17.1914 8.00063 16.9094 8.00063C16.6275 8.00063 16.3572 8.11324 16.1586 8.31343L11.3154 13.1672Z" fill="#34A8FF"/>
</svg>
