<svg width="27" height="27" viewBox="0 0 27 27" fill="none" xmlns="http://www.w3.org/2000/svg">
<path fill-rule="evenodd" clip-rule="evenodd" d="M20.755 1.03484L7.1908 14.599C6.14438 15.6398 5.55786 17.056 5.56203 18.5319V20.026C5.56203 20.6405 6.06014 21.1386 6.67458 21.1386H8.16873C9.64461 21.1428 11.0608 20.5562 12.1016 19.5098L25.6658 5.94562C27.0195 4.58858 27.0195 2.39188 25.6658 1.03482C24.2922 -0.278209 22.1286 -0.278209 20.755 1.03482V1.03484ZM24.0925 4.36669L10.5283 17.9309C9.90092 18.5544 9.05302 18.9054 8.16854 18.9077H7.78693V18.5261C7.78925 17.6416 8.14024 16.7937 8.76374 16.1664L22.3279 2.60219C22.8216 2.1306 23.5988 2.1306 24.0924 2.60219C24.5788 3.08983 24.5788 3.87906 24.0924 4.36669H24.0925Z" fill="#34A8FF"/>
<path fill-rule="evenodd" clip-rule="evenodd" d="M25.5886 9.98956C24.9742 9.98956 24.4761 10.4877 24.4761 11.1021V16.6882H20.0259C18.1825 16.6882 16.6882 18.1825 16.6882 20.0259V24.4761H5.56274C3.7194 24.4761 2.22509 22.9818 2.22509 21.1384V5.56274C2.22509 3.7194 3.7194 2.22509 5.56274 2.22509H15.6224C16.2369 2.22509 16.735 1.72698 16.735 1.11255C16.735 0.498094 16.2368 0 15.6224 0H5.56274C2.49205 0.00367715 0.00367715 2.49205 0 5.56274V21.1384C0.00367715 24.2091 2.49205 26.6975 5.56274 26.7012H18.1824C19.6586 26.7054 21.0752 26.1189 22.1163 25.0724L25.0713 22.1152C26.1179 21.0745 26.7048 19.6584 26.7012 18.1824V11.1021C26.7012 10.4877 26.203 9.98956 25.5886 9.98956ZM20.5433 23.4963C20.0961 23.9424 19.5306 24.2512 18.9135 24.3863V20.0229C18.9135 19.4084 19.4116 18.9103 20.026 18.9103H24.3928C24.2551 19.5261 23.9466 20.0907 23.5027 20.5391L20.5433 23.4963Z" fill="#34A8FF"/>
</svg>
