<svg width="20" height="20" viewBox="0 0 20 20" fill="none" xmlns="http://www.w3.org/2000/svg">
<path fill-rule="evenodd" clip-rule="evenodd" d="M9.99423 1.07324C5.06778 1.07857 1.07544 5.07091 1.07011 9.99736C0.976414 17.1166 9.3688 21.4716 15.1256 17.298C15.3508 17.1482 15.4769 16.8879 15.4549 16.6183C15.4329 16.3487 15.2663 16.1124 15.0197 16.0011C14.7732 15.8898 14.4857 15.9211 14.2689 16.0829C9.47365 19.5581 2.48309 15.9304 2.55746 9.99737C2.96574 0.131753 17.0242 0.133983 17.431 9.99737V11.4847C17.431 12.3062 16.7651 12.9721 15.9436 12.9721C15.1222 12.9721 14.4563 12.3062 14.4563 11.4847V9.99737C14.2689 4.10076 5.71883 4.1015 5.53217 9.99737C5.54989 11.8485 6.70568 13.4976 8.43969 14.1459C10.1737 14.7942 12.1279 14.3078 13.3557 12.9223C14.0189 14.0929 15.3854 14.6725 16.6881 14.3359C17.9908 13.9993 18.9053 12.8301 18.9184 11.4847V9.99737C18.913 5.07092 14.9207 1.07858 9.99423 1.07325V1.07324ZM9.99424 12.9719C8.35135 12.9719 7.01953 11.6401 7.01953 9.99717C7.01953 8.35428 8.35135 7.02246 9.99424 7.02246C11.6371 7.02246 12.969 8.35428 12.969 9.99717C12.969 11.6401 11.6371 12.9719 9.99424 12.9719Z" fill="white"/>
</svg>
