<svg width="21" height="21" viewBox="0 0 21 21" fill="none" xmlns="http://www.w3.org/2000/svg">
<circle cx="10.5" cy="10.5" r="10.5" fill="#FF0000"/>
<path d="M11.0254 6.08588L10.8014 12.8479H9.14939L8.91139 6.08588H11.0254ZM10.0174 16.1239C9.66272 16.1239 9.36872 16.0165 9.13539 15.8019C8.91139 15.5779 8.79939 15.3025 8.79939 14.9759C8.79939 14.6492 8.91139 14.3785 9.13539 14.1639C9.36872 13.9399 9.66272 13.8279 10.0174 13.8279C10.3627 13.8279 10.6474 13.9399 10.8714 14.1639C11.0954 14.3785 11.2074 14.6492 11.2074 14.9759C11.2074 15.3025 11.0954 15.5779 10.8714 15.8019C10.6474 16.0165 10.3627 16.1239 10.0174 16.1239Z" fill="white"/>
</svg>
