<svg width="60" height="60" viewBox="0 0 60 60" fill="none" xmlns="http://www.w3.org/2000/svg">
<path fill-rule="evenodd" clip-rule="evenodd" d="M30.3864 5.48584C44.0246 5.48584 55.0805 16.7007 55.0805 30.5349C55.0805 44.3691 44.0246 55.584 30.3864 55.584C16.7483 55.584 5.69238 44.3691 5.69238 30.5349C5.69238 16.7007 16.7483 5.48584 30.3864 5.48584Z" fill="white"/>
<path fill-rule="evenodd" clip-rule="evenodd" d="M55.648 30.0164C55.648 15.8764 44.1915 4.41992 30.0516 4.41992C15.9116 4.41992 4.45508 15.8764 4.45508 30.0164C4.45508 42.792 13.8153 53.3815 26.0521 55.3033V37.4157H19.5498V30.0164H26.0521V24.3769C26.0521 17.9623 29.8709 14.4191 35.7199 14.4191C38.5211 14.4191 41.4503 14.9186 41.4503 14.9186V21.2145H38.2218C35.0429 21.2145 34.051 23.1879 34.051 25.2119V30.0164H41.1499L40.0146 37.4157H34.051V55.3033C46.2878 53.3815 55.648 42.7919 55.648 30.0164V30.0164Z" fill="#4285F4"/>
</svg>
