<svg width="37" height="37" viewBox="0 0 37 37" fill="none" xmlns="http://www.w3.org/2000/svg">
<path fill-rule="evenodd" clip-rule="evenodd" d="M18.6529 1.1614C16.3808 1.1614 14.177 1.61099 12.103 2.49766C10.0983 3.35469 8.29752 4.58205 6.75056 6.14565C5.20275 7.71011 3.98756 9.53184 3.13875 11.5602C2.25987 13.6605 1.81424 15.8923 1.81424 18.1937C1.81424 20.4951 2.25987 22.7269 3.13875 24.8272C3.98756 26.8556 5.20275 28.6773 6.75056 30.2418C8.29752 31.8054 10.0984 33.0328 12.103 33.8898C14.1771 34.7765 16.3808 35.2261 18.6529 35.2261C20.9251 35.2261 23.1288 34.7765 25.2029 33.8898C27.2075 33.0328 29.0084 31.8054 30.5553 30.2418C32.1031 28.6773 33.3183 26.8556 34.1671 24.8272C35.046 22.7269 35.4917 20.4951 35.4917 18.1937C35.4917 15.8923 35.046 13.6605 34.1671 11.5602C33.3183 9.53184 32.1031 7.71011 30.5553 6.14565C29.0084 4.58204 27.2075 3.35468 25.2029 2.49766C23.1288 1.61099 20.9251 1.1614 18.6529 1.1614M18.6528 0C28.5939 0 36.6528 8.14556 36.6528 18.1936C36.6528 28.2417 28.594 36.3872 18.6528 36.3872C8.71171 36.3872 0.652832 28.2417 0.652832 18.1936C0.652832 8.14557 8.71171 0 18.6528 0Z" fill="#1DBF73"/>
<path fill-rule="evenodd" clip-rule="evenodd" d="M11.9746 16.986C12.8415 16.986 13.5442 15.959 13.5442 14.692C13.5442 13.425 12.8415 12.3979 11.9746 12.3979C11.1078 12.3979 10.405 13.425 10.405 14.692C10.405 15.959 11.1078 16.986 11.9746 16.986Z" fill="#1DBF73"/>
<path fill-rule="evenodd" clip-rule="evenodd" d="M25.4973 16.986C26.3642 16.986 27.067 15.959 27.067 14.692C27.067 13.425 26.3642 12.3979 25.4973 12.3979C24.6305 12.3979 23.9277 13.425 23.9277 14.692C23.9277 15.959 24.6305 16.986 25.4973 16.986Z" fill="#1DBF73"/>
<path fill-rule="evenodd" clip-rule="evenodd" d="M18.6424 29.4233C14.4988 29.4233 11.1312 25.7532 11.0577 22.2108C11.27 23.0448 13.8799 28.0018 18.6424 28.0018C23.8161 28.0018 26.2284 22.8528 26.2284 22.0928C26.2284 25.6713 22.8321 29.4233 18.6424 29.4233V29.4233ZM12.0339 23.0832C10.7444 22.4788 10.7124 22.1323 11.9475 22.0928C11.9475 22.4228 11.9761 22.7529 12.0339 23.0832Z" fill="#1DBF73"/>
</svg>
