<svg width="40" height="40" viewBox="0 0 40 40" fill="none" xmlns="http://www.w3.org/2000/svg">
<path d="M11.2602 18.1152H10.6953C10.143 18.1152 9.69531 18.5629 9.69531 19.1152V33.5307C9.69531 34.083 10.143 34.5307 10.6953 34.5307H11.2602C11.8125 34.5307 12.2602 34.083 12.2602 33.5307V19.1152C12.2602 18.5629 11.8125 18.1152 11.2602 18.1152Z" fill="white"/>
<path d="M29.2134 17.6035H28.6484C28.0962 17.6035 27.6484 18.0512 27.6484 18.6035V33.019C27.6484 33.5713 28.0962 34.019 28.6484 34.019H29.2134C29.7656 34.019 30.2134 33.5713 30.2134 33.019V18.6035C30.2134 18.0512 29.7656 17.6035 29.2134 17.6035Z" fill="white"/>
<path d="M6.54297 14.0159V32.938H8.92354V14.0155C8.92354 4.80928 30.9819 5.32073 30.9819 14.0155V32.938H33.1387V14.0155C33.1387 2.25224 6.54297 1.74001 6.54297 14.0159Z" fill="white"/>
<path fill-rule="evenodd" clip-rule="evenodd" d="M5.88776 18.166C3.56368 19.5808 2 22.2257 2 25.255C2 28.2842 3.56368 30.9291 5.88776 32.3439V18.166Z" fill="white"/>
<path fill-rule="evenodd" clip-rule="evenodd" d="M34.0498 18.166C36.3739 19.5808 37.9376 22.2257 37.9376 25.255C37.9376 28.2842 36.3739 30.9291 34.0498 32.3439V18.166Z" fill="white"/>
</svg>
