<svg width="41" height="41" viewBox="0 0 41 41" fill="none" xmlns="http://www.w3.org/2000/svg">
<path d="M20.5001 32.4584L20.5001 32.4413M20.5001 20.5001L20.5001 20.483M20.5001 8.54174L20.5001 8.52466M20.5001 30.7501C21.4436 30.7501 22.2084 31.5149 22.2084 32.4584C22.2084 33.4019 21.4436 34.1667 20.5001 34.1667C19.5566 34.1667 18.7917 33.4019 18.7917 32.4584C18.7917 31.5149 19.5566 30.7501 20.5001 30.7501ZM20.5001 18.7917C21.4436 18.7917 22.2084 19.5566 22.2084 20.5001C22.2084 21.4436 21.4436 22.2084 20.5001 22.2084C19.5566 22.2084 18.7917 21.4436 18.7917 20.5001C18.7917 19.5566 19.5566 18.7917 20.5001 18.7917ZM20.5001 6.83341C21.4436 6.83341 22.2084 7.59826 22.2084 8.54174C22.2084 9.48523 21.4436 10.2501 20.5001 10.2501C19.5566 10.2501 18.7917 9.48523 18.7917 8.54174C18.7917 7.59826 19.5566 6.83341 20.5001 6.83341Z" stroke="#BCBCBC" stroke-width="3" stroke-linecap="round" stroke-linejoin="round"/>
</svg>
