<svg width="20" height="20" viewBox="0 0 20 20" fill="none" xmlns="http://www.w3.org/2000/svg">
<path fill-rule="evenodd" clip-rule="evenodd" d="M15.206 7.33749V6.27849C15.206 3.40344 12.8753 1.07275 10.0002 1.07275C7.1252 1.07275 4.79451 3.40344 4.79451 6.27849V7.33749C3.44106 7.92818 2.56542 9.26382 2.56348 10.7406V15.2026C2.56594 17.2552 4.22928 18.9186 6.28186 18.921H13.7186C15.7712 18.9185 17.4346 17.2552 17.437 15.2026V10.7406C17.4351 9.26382 16.5594 7.92819 15.206 7.33749H15.206ZM6.28187 6.2785C6.28187 4.22489 7.94665 2.56012 10.0002 2.56012C12.0539 2.56012 13.7186 4.2249 13.7186 6.2785V7.02218H6.28186L6.28187 6.2785ZM15.9497 15.2026C15.9497 16.4348 14.9508 17.4337 13.7186 17.4337H6.28187C5.04971 17.4337 4.05084 16.4348 4.05084 15.2026V10.7406C4.05084 9.5084 5.04971 8.50953 6.28187 8.50953H13.7186C14.9508 8.50953 15.9497 9.5084 15.9497 10.7406V15.2026Z" fill="white"/>
<path fill-rule="evenodd" clip-rule="evenodd" d="M10.0005 11.4839C9.5898 11.4839 9.25684 11.8168 9.25684 12.2276V13.7149C9.25684 14.1256 9.5898 14.4586 10.0005 14.4586C10.4112 14.4586 10.7442 14.1256 10.7442 13.7149V12.2276C10.7442 11.8168 10.4112 11.4839 10.0005 11.4839Z" fill="white"/>
</svg>
