<svg width="42" height="42" viewBox="0 0 42 42" fill="none" xmlns="http://www.w3.org/2000/svg">
<path fill-rule="evenodd" clip-rule="evenodd" d="M7.27119 22.248H34.7288C35.4309 22.248 36 21.6884 36 20.998C36 20.3077 35.4309 19.748 34.7288 19.748H7.27119C6.56913 19.748 6 20.3077 6 20.998C6 21.6884 6.56913 22.248 7.27119 22.248Z" fill="white"/>
<path fill-rule="evenodd" clip-rule="evenodd" d="M7.20968 14.1899H19.7903C20.4584 14.1899 21 13.6303 21 12.9399C21 12.2496 20.4584 11.6899 19.7903 11.6899H7.20968C6.54159 11.6899 6 12.2496 6 12.9399C6 13.6303 6.54159 14.1899 7.20968 14.1899Z" fill="white"/>
<path fill-rule="evenodd" clip-rule="evenodd" d="M26.213 14.1899H34.787C35.4569 14.1899 36 13.6303 36 12.9399C36 12.2496 35.4569 11.6899 34.787 11.6899H26.213C25.5431 11.6899 25 12.2496 25 12.9399C25 13.6303 25.5431 14.1899 26.213 14.1899Z" fill="#34A8FF"/>
<path fill-rule="evenodd" clip-rule="evenodd" d="M7.21814 30.3062H17.7819C18.4546 30.3062 19 29.7465 19 29.0562C19 28.3658 18.4546 27.8062 17.7819 27.8062H7.21814C6.54538 27.8062 6 28.3658 6 29.0562C6 29.7465 6.54538 30.3062 7.21814 30.3062Z" fill="white"/>
</svg>
