<svg width="100" height="100" viewBox="0 0 100 100" fill="none" xmlns="http://www.w3.org/2000/svg">
<path fill-rule="evenodd" clip-rule="evenodd" d="M43 67C43 68.1046 42.1046 69 41 69H35C33.8954 69 33 68.1046 33 67V33C33 31.8954 33.8954 31 35 31H41C42.1046 31 43 31.8954 43 33V67Z" fill="white"/>
<path fill-rule="evenodd" clip-rule="evenodd" d="M66 67C66 68.1046 65.1046 69 64 69H58C56.8954 69 56 68.1046 56 67V33C56 31.8954 56.8954 31 58 31H64C65.1046 31 66 31.8954 66 33V67Z" fill="white"/>
</svg>
