<svg width="28" height="28" viewBox="0 0 28 28" fill="none" xmlns="http://www.w3.org/2000/svg">
<path fill-rule="evenodd" clip-rule="evenodd" d="M25.2754 11.416C24.3727 9.93773 23.234 8.61726 21.9044 7.507L24.7044 4.707C25.0951 4.31658 25.0951 3.68342 24.7046 3.29289C24.314 2.90237 23.6809 2.90237 23.2903 3.29289L20.2454 6.342C18.3578 5.22082 16.1999 4.63646 14.0044 4.652C7.81345 4.652 4.28545 8.89 2.73345 11.416C1.75552 12.9977 1.75552 14.9963 2.73345 16.578C3.63621 18.0563 4.77494 19.3767 6.10445 20.487L3.30445 23.287C2.91382 23.6774 2.91382 24.3106 3.30434 24.7011C3.69486 25.0916 4.32803 25.0916 4.71855 24.7011L7.77044 21.649C9.65571 22.77 11.8111 23.3554 14.0044 23.342C20.1954 23.342 23.7234 19.104 25.2754 16.578C26.2534 14.9963 26.2534 12.9977 25.2754 11.416H25.2754ZM4.43745 15.531C3.85645 14.5908 3.85645 13.4032 4.43745 12.463C5.77145 10.297 8.78645 6.652 14.0044 6.652C15.6647 6.6427 17.3017 7.04284 18.7704 7.817L16.7574 9.83C14.778 8.51581 12.1465 8.77891 10.4664 10.459C8.78636 12.1391 8.52326 14.7705 9.83745 16.75L7.52745 19.06C6.30255 18.0697 5.25729 16.8759 4.43745 15.531ZM17.0044 13.997C17.0044 15.6538 15.6613 16.997 14.0044 16.997C13.559 16.9953 13.1196 16.8927 12.7194 16.697L16.7044 12.712C16.9002 13.1122 17.0027 13.5515 17.0044 13.997ZM11.0044 13.997C11.0044 12.3402 12.3476 10.997 14.0044 10.997C14.4499 10.9987 14.8892 11.1013 15.2894 11.297L11.3044 15.282C11.1087 14.8818 11.0062 14.4425 11.0044 13.997ZM23.5714 15.531C22.2374 17.697 19.2224 21.342 14.0044 21.342C12.3442 21.3513 10.7072 20.9512 9.23845 20.177L11.2514 18.164C13.2309 19.4782 15.8624 19.2151 17.5424 17.535C19.2225 15.8549 19.4856 13.2235 18.1714 11.244L20.4814 8.934C21.7063 9.92428 22.7516 11.1181 23.5714 12.463C24.1524 13.4032 24.1524 14.5909 23.5714 15.531Z" fill="white"/>
</svg>
