<svg width="28" height="28" viewBox="0 0 28 28" fill="none" xmlns="http://www.w3.org/2000/svg">
<path fill-rule="evenodd" clip-rule="evenodd" d="M24.1897 11.6665C22.7876 9.38296 19.5983 5.55176 14.0006 5.55176C8.40296 5.55176 5.21361 9.38297 3.81148 11.6665C2.92742 13.0964 2.92742 14.9031 3.81148 16.333C5.2136 18.6165 8.40296 22.4477 14.0006 22.4477C19.5983 22.4477 22.7876 18.6165 24.1897 16.333C25.0738 14.9031 25.0738 13.0964 24.1897 11.6665ZM22.6484 15.3865C21.4443 17.3446 18.7187 20.6397 14.0006 20.6397C9.28258 20.6397 6.55698 17.3446 5.35284 15.3865C4.82761 14.5366 4.82761 13.4629 5.35284 12.613C6.55698 10.6549 9.28258 7.35978 14.0006 7.35978C18.7187 7.35978 21.4443 10.6513 22.6484 12.613C23.1736 13.4629 23.1736 14.5366 22.6484 15.3865H22.6484Z" fill="#34A8FF"/>
<path fill-rule="evenodd" clip-rule="evenodd" d="M14.0005 9.47998C11.5042 9.47998 9.48047 11.5037 9.48047 14C9.48047 16.4964 11.5042 18.5201 14.0005 18.5201C16.4969 18.5201 18.5206 16.4964 18.5206 14C18.5176 11.5049 16.4956 9.48297 14.0005 9.47998H14.0005ZM14.0005 16.7121C12.5027 16.7121 11.2885 15.4979 11.2885 14C11.2885 12.5022 12.5027 11.288 14.0005 11.288C15.4983 11.288 16.7126 12.5022 16.7126 14C16.7126 15.4979 15.4983 16.7121 14.0005 16.7121Z" fill="#34A8FF"/>
</svg>
