<svg width="8" height="13" viewBox="0 0 8 13" fill="none" xmlns="http://www.w3.org/2000/svg">
<path d="M8 6.5C8 6.74972 7.89774 6.96271 7.68535 7.15367L1.54966 12.7576C1.38446 12.9192 1.16421 13 0.912488 13C0.40118 13 -7.87259e-08 12.6328 -7.87259e-08 12.148C-7.87259e-08 11.913 0.102261 11.7 0.275319 11.5384L5.80531 6.5L0.275319 1.46158C0.102261 1.29266 -7.87259e-08 1.07966 -7.87259e-08 0.844633C-7.87259e-08 0.367232 0.40118 0 0.912488 0C1.16421 0 1.38446 0.080791 1.54966 0.242373L7.68535 5.84633C7.89774 6.03729 7.99213 6.25028 8 6.5Z" fill="#B9B9B9"/>
</svg>
