<svg width="36" height="37" viewBox="0 0 36 37" fill="none" xmlns="http://www.w3.org/2000/svg">
<path fill-rule="evenodd" clip-rule="evenodd" d="M18.0001 1.1614C15.7279 1.1614 13.5242 1.61099 11.4502 2.49766C9.44551 3.35469 7.64469 4.58205 6.09773 6.14565C4.54991 7.71011 3.33473 9.53184 2.48592 11.5602C1.60703 13.6605 1.1614 15.8923 1.1614 18.1937C1.1614 20.4951 1.60703 22.7269 2.48592 24.8272C3.33473 26.8556 4.54991 28.6773 6.09773 30.2418C7.64469 31.8054 9.44552 33.0328 11.4502 33.8898C13.5242 34.7765 15.7279 35.2261 18.0001 35.2261C20.2723 35.2261 22.476 34.7765 24.55 33.8898C26.5547 33.0328 28.3555 31.8054 29.9025 30.2418C31.4503 28.6773 32.6655 26.8556 33.5143 24.8272C34.3932 22.7269 34.8388 20.4951 34.8388 18.1937C34.8388 15.8923 34.3932 13.6605 33.5143 11.5602C32.6655 9.53184 31.4503 7.71011 29.9025 6.14565C28.3555 4.58204 26.5547 3.35468 24.55 2.49766C22.476 1.61099 20.2723 1.1614 18.0001 1.1614M18 0C27.9411 0 36 8.14556 36 18.1936C36 28.2417 27.9411 36.3872 18 36.3872C8.05887 36.3872 0 28.2417 0 18.1936C0 8.14557 8.05887 0 18 0Z" fill="#FF5757"/>
<path fill-rule="evenodd" clip-rule="evenodd" d="M11.3218 16.986C12.1887 16.986 12.8914 15.959 12.8914 14.692C12.8914 13.425 12.1887 12.3979 11.3218 12.3979C10.4549 12.3979 9.7522 13.425 9.7522 14.692C9.7522 15.959 10.4549 16.986 11.3218 16.986Z" fill="#FF5757"/>
<path fill-rule="evenodd" clip-rule="evenodd" d="M24.8445 16.986C25.7114 16.986 26.4141 15.959 26.4141 14.692C26.4141 13.425 25.7114 12.3979 24.8445 12.3979C23.9776 12.3979 23.2749 13.425 23.2749 14.692C23.2749 15.959 23.9776 16.986 24.8445 16.986Z" fill="#FF5757"/>
<path fill-rule="evenodd" clip-rule="evenodd" d="M17.9767 22.0928C22.1203 22.0928 25.488 25.7629 25.5615 29.3054C25.3492 28.4713 22.7393 23.5144 17.9767 23.5144C12.8031 23.5144 10.3907 28.6633 10.3907 29.4233C10.3907 25.8449 13.7871 22.0928 17.9767 22.0928V22.0928ZM24.585 28.4328C25.8745 29.0373 25.9065 29.3838 24.6714 29.4232C24.6714 29.0932 24.6428 28.7631 24.585 28.4328Z" fill="#FF5757"/>
</svg>
