<svg width="38" height="38" viewBox="0 0 38 38" fill="none" xmlns="http://www.w3.org/2000/svg">
<g clip-path="url(#clip0_1224_295)">
<path d="M21.2641 31.1709L23.1061 32.5106C23.6541 32.9095 24.3061 33.1409 24.983 33.1767C25.6599 33.2124 26.3327 33.051 26.9196 32.712C27.5067 32.3732 27.9829 31.8713 28.2904 31.2672C28.5978 30.6631 28.7234 29.9828 28.6519 29.3087L28.4127 27.0437C28.3287 26.2394 28.5008 25.4292 28.9043 24.7284C29.3111 24.0245 29.9301 23.4673 30.6728 23.1366L32.7541 22.2132C33.3734 21.9379 33.8996 21.4889 34.2688 20.9206C34.6381 20.3523 34.8345 19.689 34.8342 19.0113C34.8346 18.3336 34.6383 17.6705 34.2691 17.1022C33.8999 16.534 33.3737 16.0851 32.7544 15.81L30.6725 14.8851C29.9287 14.5516 29.3102 13.9903 28.9061 13.2824C28.4995 12.5784 28.3265 11.7638 28.4118 10.9554L28.6517 8.68991C28.7232 8.01604 28.5975 7.33592 28.29 6.73207C27.9825 6.12823 27.5063 5.6266 26.9193 5.28807C26.3324 4.94902 25.6599 4.78749 24.9831 4.82308C24.3063 4.85867 23.6543 5.08984 23.1063 5.48857L21.266 6.82938C20.6082 7.3072 19.8161 7.56469 19.0031 7.56501C18.1921 7.5628 17.4027 7.30393 16.7479 6.82549L14.8998 5.48932C14.3518 5.09035 13.6998 4.85895 13.0229 4.82319C12.346 4.78744 11.6733 4.94885 11.0863 5.28787C10.4992 5.6267 10.023 6.1286 9.71556 6.73269C9.40808 7.33678 9.28249 8.01711 9.35401 8.69117L9.59322 10.9562C9.68015 11.7625 9.50961 12.5757 9.10604 13.2791C8.69926 13.983 8.08023 14.5402 7.33754 14.871L5.25011 15.7978C4.63079 16.0731 4.10461 16.5221 3.73539 17.0904C3.36617 17.6588 3.16976 18.322 3.16998 18.9997C3.16964 19.6774 3.36597 20.3406 3.73516 20.9088C4.10434 21.4771 4.63051 21.926 5.24982 22.201L7.33175 23.1259C8.0745 23.4563 8.69348 24.0135 9.0998 24.7175C9.50638 25.4215 9.67945 26.2361 9.59416 27.0445L9.35417 29.31C9.28273 29.9838 9.4084 30.664 9.71593 31.2678C10.0235 31.8717 10.4996 32.3733 11.0866 32.7118C11.6736 33.0504 12.3461 33.2117 13.0228 33.1761C13.6995 33.1405 14.3514 32.9096 14.8997 32.5113L16.74 31.1705C17.3977 30.6927 18.1898 30.4352 19.0028 30.4349C19.8155 30.4348 20.6072 30.6925 21.2641 31.1709Z" stroke="#1DBF73" stroke-width="2" stroke-linecap="round" stroke-linejoin="round"/>
<path d="M21.3755 23.115C23.6474 21.8033 24.4258 18.8982 23.1141 16.6264C21.8025 14.3545 18.8974 13.5761 16.6255 14.8877C14.3536 16.1994 13.5752 19.1045 14.8869 21.3764C16.1986 23.6482 19.1036 24.4267 21.3755 23.115Z" stroke="#1DBF73" stroke-width="2" stroke-linecap="round" stroke-linejoin="round"/>
</g>
<defs>
<clipPath id="clip0_1224_295">
<rect width="38" height="38" fill="white"/>
</clipPath>
</defs>
</svg>
