<svg xmlns="http://www.w3.org/2000/svg" width="78.209" height="74.002" viewBox="0 0 78.209 74.002">
  <path id="Path_7975" data-name="Path 7975" d="M-926.516-11648.453A40.22,40.22,0,0,1-944-11670.146v-25.668l.074-.216a40.189,40.189,0,0,1,30.77-26.426h14.46a40.439,40.439,0,0,1,5.818,1.53,40.205,40.205,0,0,1,24.9,51.047,39.981,39.981,0,0,1-17.452,21.425Zm-9.816-44.96a32.162,32.162,0,0,0,19.918,40.837,32.166,32.166,0,0,0,40.839-19.918,32.241,32.241,0,0,0,1.41-15.176l-34.14,16.647a7.961,7.961,0,0,1-6.134.377,7.974,7.974,0,0,1-4.6-4.074l-6.955-14.257a4.026,4.026,0,0,1,1.848-5.369,3.986,3.986,0,0,1,3.07-.186,3.977,3.977,0,0,1,2.3,2.037l6.952,14.255,35.441-17.281a32.192,32.192,0,0,0-19.108-17.81,31.981,31.981,0,0,0-10.434-1.754A32.184,32.184,0,0,0-936.331-11693.413Z" transform="translate(943.999 11722.455)"/>
</svg>
