<svg xmlns="http://www.w3.org/2000/svg" width="78.733" height="73.999" viewBox="0 0 78.733 73.999">
  <path id="Path_7972" data-name="Path 7972" d="M854.518-11647.861a40.091,40.091,0,0,1-15.244-15,40.194,40.194,0,0,1-3.8-8.905v-22.375q.275-.948.6-1.886a40.162,40.162,0,0,1,28.067-25.831H884q1.564.4,3.119.936a40.205,40.205,0,0,1,24.9,51.047,40.163,40.163,0,0,1-18.443,22.017Zm-4.61-13.881a32.13,32.13,0,0,0,12.674,8.8c.336.13.633.238.907.333l.1.032c.3.1.621.209.989.323a32.129,32.129,0,0,0,15.435.875,19.972,19.972,0,0,0-12.5-12.589,20.177,20.177,0,0,0-6.572-1.107A19.993,19.993,0,0,0,849.908-11661.742Zm20.218-9.819a27.926,27.926,0,0,1,17.525,17.717,31.872,31.872,0,0,0,16.774-18.649,32.16,32.16,0,0,0-19.918-40.836,32.165,32.165,0,0,0-40.839,19.917,31.885,31.885,0,0,0,1.74,25.022,27.981,27.981,0,0,1,15.518-4.723A28.217,28.217,0,0,1,870.126-11671.562Zm1.307-3.8a16.081,16.081,0,0,1-9.957-20.418,16.076,16.076,0,0,1,20.415-9.96,16.083,16.083,0,0,1,9.96,20.421,16.088,16.088,0,0,1-15.2,10.833A16.011,16.011,0,0,1,871.433-11675.358Zm-2.367-17.8a8.043,8.043,0,0,0,4.98,10.21,8.04,8.04,0,0,0,10.208-4.98,8.038,8.038,0,0,0-4.977-10.207,7.986,7.986,0,0,0-2.609-.438A8.047,8.047,0,0,0,869.066-11693.162Z" transform="translate(-835.477 11721.86)"/>
</svg>
