<svg xmlns="http://www.w3.org/2000/svg" width="71.901" height="73.999" viewBox="0 0 71.901 73.999">
  <path id="Path_7976" data-name="Path 7976" d="M-1322.316-11644.236a4.52,4.52,0,0,0,.163-2.314l-11.508-61.036a4.477,4.477,0,0,0-2.971-3.436,4.467,4.467,0,0,0-4.454.879l-43.848,38.551v-12.034l37.876-33.3a13.946,13.946,0,0,1,1.74-1.306h14.435a13.384,13.384,0,0,1,6.1,8.975l11.508,61.036a13.72,13.72,0,0,1,.168,3.988Zm-41.623,0-20.231-6.967a10.979,10.979,0,0,1-.763-4.034v-5.784l48.751,16.785Zm8.266-11.489a4.521,4.521,0,0,1-2.8-5.745,4.52,4.52,0,0,1,5.745-2.8,4.519,4.519,0,0,1,2.8,5.745,4.521,4.521,0,0,1-4.274,3.048A4.532,4.532,0,0,1-1355.672-11655.726Zm4.415-12.817a4.523,4.523,0,0,1-2.8-5.745l7.357-21.364a4.521,4.521,0,0,1,5.745-2.8,4.519,4.519,0,0,1,2.8,5.745l-7.357,21.365a4.522,4.522,0,0,1-4.273,3.05A4.5,4.5,0,0,1-1351.257-11668.543Z" transform="translate(1384.933 11718.235)"/>
</svg>
