<svg xmlns="http://www.w3.org/2000/svg" width="78.324" height="73.999" viewBox="0 0 78.324 73.999">
  <path id="Path_7970" data-name="Path 7970" d="M-35.937-11648.114a40.211,40.211,0,0,1-18.177-22.376v-24.979c.061-.187.124-.374.188-.561a40.174,40.174,0,0,1,29.112-26.084H-7.042a40.473,40.473,0,0,1,4.163,1.188,40.205,40.205,0,0,1,24.9,51.047,40,40,0,0,1-18.033,21.764Zm-10.4-45.3a32.164,32.164,0,0,0,19.918,40.837,32.166,32.166,0,0,0,40.839-19.918,32.161,32.161,0,0,0-19.918-40.836,31.981,31.981,0,0,0-10.434-1.754A32.184,32.184,0,0,0-46.332-11693.413Zm34.237,27.536-5.707-11.706-11.706,5.71a4.016,4.016,0,0,1-3.067.188,4.014,4.014,0,0,1-2.3-2.037,4.016,4.016,0,0,1,1.848-5.371l11.706-5.708-5.71-11.705a4.016,4.016,0,0,1,1.848-5.369,4.015,4.015,0,0,1,5.372,1.849l5.707,11.7,11.706-5.708a4.014,4.014,0,0,1,5.369,1.849,4.011,4.011,0,0,1-1.848,5.369l-11.706,5.71,5.71,11.7a4.018,4.018,0,0,1-1.848,5.371,4,4,0,0,1-1.757.407A4.021,4.021,0,0,1-12.094-11665.877Z" transform="translate(54.114 11722.113)"/>
</svg>
