<svg xmlns="http://www.w3.org/2000/svg" width="78.533" height="74.003" viewBox="0 0 78.533 74.003">
  <path id="Path_7973" data-name="Path 7973" d="M1298.852-11648.237a40.229,40.229,0,0,1-18.181-22.93v-23.628q.191-.618.4-1.234a40.173,40.173,0,0,1,29.685-26.211h16.623a40.37,40.37,0,0,1,4.736,1.315,40.2,40.2,0,0,1,24.9,51.044,39.99,39.99,0,0,1-17.823,21.644Zm-10.184-45.179a32.163,32.163,0,0,0,19.915,40.837,32.161,32.161,0,0,0,40.836-19.918,32.163,32.163,0,0,0-19.915-40.836,32,32,0,0,0-10.432-1.753A32.181,32.181,0,0,0,1288.668-11693.416Zm23.838,29.446a4.018,4.018,0,0,1-2.49-5.1,4.016,4.016,0,0,1,5.107-2.49,4.013,4.013,0,0,1,2.487,5.1,4.017,4.017,0,0,1-3.8,2.709A4.022,4.022,0,0,1,1312.506-11663.97Zm3.924-11.392a4.016,4.016,0,0,1-2.49-5.1l6.537-18.99a4.02,4.02,0,0,1,5.107-2.49,4.014,4.014,0,0,1,2.487,5.1l-6.537,18.99a4.019,4.019,0,0,1-3.8,2.71A3.988,3.988,0,0,1,1316.43-11675.361Z" transform="translate(-1280.671 11722.24)"/>
</svg>
