<svg xmlns="http://www.w3.org/2000/svg" width="75.787" height="74" viewBox="0 0 75.787 74">
  <path id="Path_7971" data-name="Path 7971" d="M443.962-11646.454l-1.888-3.876a31.619,31.619,0,0,1-5.974,3.876H412.53c-6.953-3.605-11.909-10.282-13.831-18.811l-5.527,2.7a3.977,3.977,0,0,1-3.066.188,4,4,0,0,1-.427-.174v-7.246l7.634-3.722a3.839,3.839,0,0,1,.574-.229,35.91,35.91,0,0,1,.868-6.892l-7.807-2.687a3.983,3.983,0,0,1-1.268-.717v-6.158a4.016,4.016,0,0,1,3.884-.72l7.8,2.687a36.118,36.118,0,0,1,3.552-5.974,4.144,4.144,0,0,1-.3-.521l-3.737-7.657a3.983,3.983,0,0,1-.188-3.062,4,4,0,0,1,2.036-2.308,4,4,0,0,1,3.069-.188,3.989,3.989,0,0,1,2.3,2.036l2.69,5.516a30.281,30.281,0,0,1,9.046-5.136l.562-1.633a15.931,15.931,0,0,1,5.906-7.884l-2.387-4.892a4.037,4.037,0,0,1-.208-.512H432.6l1.237,2.54a15.961,15.961,0,0,1,6.974.785,15.936,15.936,0,0,1,5.98,3.676l5.55-2.71a4,4,0,0,1,3.069-.186,3.99,3.99,0,0,1,2.3,2.036,3.991,3.991,0,0,1,.185,3.066,4,4,0,0,1-2.036,2.3l-4.894,2.386a15.98,15.98,0,0,1-.2,9.85l-.562,1.631a30.438,30.438,0,0,1,3.964,9.614l5.512-2.687a3.979,3.979,0,0,1,3.066-.187,3.991,3.991,0,0,1,2.3,2.036,4.006,4.006,0,0,1,.185,3.072,3.987,3.987,0,0,1-2.036,2.3l-7.657,3.734a4.566,4.566,0,0,1-.559.224,35.95,35.95,0,0,1-.877,6.9l7.8,2.687a4.02,4.02,0,0,1,2.49,5.105,4.019,4.019,0,0,1-5.1,2.487l-7.8-2.687a36.117,36.117,0,0,1-3.561,5.965,4.655,4.655,0,0,1,.309.535l3.737,7.654a4,4,0,0,1,.4,1.875Zm-21.417-5.282a20.109,20.109,0,0,0,13.357-3.949,26.636,26.636,0,0,0,9.517-13.137c2.628-7.634,1.892-15.827-1.972-21.915l-6.683-2.3Zm-15.1-30.161a26.634,26.634,0,0,0-.589,16.212,20.1,20.1,0,0,0,8.093,11.336l14.22-41.3-6.68-2.3C415.7-11695.534,410.076-11689.534,407.448-11681.9Zm20.759-23.216-.218.56,15.188,5.231a8.007,8.007,0,0,0-.377-6.136,7.975,7.975,0,0,0-4.6-4.078,7.96,7.96,0,0,0-2.593-.435A8.065,8.065,0,0,0,428.207-11705.113Z" transform="translate(-389.68 11720.454)"/>
</svg>
