<svg xmlns="http://www.w3.org/2000/svg" width="78.324" height="73.999" viewBox="0 0 78.324 73.999">
  <path id="Path_7974" data-name="Path 7974" d="M-480.937-11648.114a40.211,40.211,0,0,1-18.177-22.376v-24.979c.061-.187.124-.374.188-.561a40.17,40.17,0,0,1,29.113-26.084h17.772a40.459,40.459,0,0,1,4.162,1.188,40.205,40.205,0,0,1,24.9,51.047,40,40,0,0,1-18.033,21.764Zm25.34-4.238c-.439.474-.845.889-1.236,1.271a32.133,32.133,0,0,0,16.963-7.62l-8.821-3.038A54.934,54.934,0,0,1-455.6-11652.353Zm-20.415-10.479a20.461,20.461,0,0,0,1.869,7.482,5.238,5.238,0,0,0,2.729,2.772,5.232,5.232,0,0,0,3.859-.5,20.465,20.465,0,0,0,6.081-4.747,44.875,44.875,0,0,0,5.007-6.591l-19.432-6.689A44.9,44.9,0,0,0-476.011-11662.831Zm-7.812,2.455c-.088-.7-.147-1.26-.191-1.764a54.992,54.992,0,0,1,.336-11.646l-8.821-3.038A32.18,32.18,0,0,0-483.823-11660.376Zm41.858-16.039c-.88,2.556-1.881,5.068-2.973,7.471l10.79,3.715a32.2,32.2,0,0,0,3.573-7.265,32.155,32.155,0,0,0,1.657-7.921l-10.793-3.717C-440.326-11681.565-441.085-11678.97-441.965-11676.415Zm-30.379-10.46a75.9,75.9,0,0,0-2.219,7.729l21.99,7.573a75.794,75.794,0,0,0,3.011-7.458,75.924,75.924,0,0,0,2.219-7.729l-21.99-7.57A75.531,75.531,0,0,0-472.344-11686.875Zm-18.988-6.538a32.187,32.187,0,0,0-1.657,7.924l10.793,3.715c.612-2.555,1.375-5.151,2.258-7.715s1.887-5.092,2.97-7.474l-10.793-3.714A32.3,32.3,0,0,0-491.332-11693.413Zm53.44-10.354a55.039,55.039,0,0,1-.339,11.65l8.821,3.037a32.1,32.1,0,0,0-8.677-16.447C-438.012-11705-437.948-11704.421-437.892-11703.768Zm-16.459-9.057a20.453,20.453,0,0,0-6.081,4.745,44.845,44.845,0,0,0-5.007,6.593l19.432,6.69a44.893,44.893,0,0,0,.112-8.277,20.526,20.526,0,0,0-1.869-7.484,5.254,5.254,0,0,0-2.729-2.772,3.5,3.5,0,0,0-1.148-.184A6.632,6.632,0,0,0-454.351-11712.824Zm-27.688,5.622,8.821,3.037a55.046,55.046,0,0,1,6.905-9.39c.4-.424.812-.851,1.236-1.266A32.126,32.126,0,0,0-482.039-11707.2Z" transform="translate(499.114 11722.113)"/>
</svg>
