<svg xmlns="http://www.w3.org/2000/svg" width="89.559" height="73.999" viewBox="0 0 89.559 73.999">
  <path id="Path_7977" data-name="Path 7977" d="M-1792.846-11652.95l-42.525-14.643a12.173,12.173,0,0,1-5.518-3.864v-17.887l11.348-32.956a12.383,12.383,0,0,1,2.871-4.649h21.637l45.424,15.641a12.351,12.351,0,0,1,7.6,15.706l-13.429,39a12.384,12.384,0,0,1-1.991,3.651Zm-42.372-27.678a4.114,4.114,0,0,0,2.532,5.235l54.274,18.688a4.115,4.115,0,0,0,5.22-2.567l10.921-31.715-30.236,8.021a12.226,12.226,0,0,1-7.128-.259,12.219,12.219,0,0,1-5.774-4.184l-18.888-24.937Zm14.483-40.647,21.862,28.855a4.046,4.046,0,0,0,1.923,1.4,4.057,4.057,0,0,0,2.376.086l34.994-9.278a4.091,4.091,0,0,0-2.715-3.292l-54.274-18.687a4.1,4.1,0,0,0-1.33-.223A4.1,4.1,0,0,0-1820.734-11721.275Z" transform="translate(1840.889 11726.949)"/>
</svg>
