<svg width="24" height="24" viewBox="0 0 24 24" fill="none" xmlns="http://www.w3.org/2000/svg">
<path fill-rule="evenodd" clip-rule="evenodd" d="M11.2069 14.6542V14.6542C11.0203 14.6542 10.8486 14.5896 10.7174 14.4548L8.74678 12.4841C8.47894 12.2144 8.47894 11.7804 8.74678 11.5089C9.01831 11.2374 9.45598 11.2374 9.72567 11.5089L11.2069 12.9846L14.644 9.55122C14.9154 9.27785 15.355 9.27785 15.6247 9.55122C15.8925 9.81901 15.8925 10.2549 15.6247 10.5282L11.6981 14.4548C11.567 14.5896 11.3916 14.6542 11.2069 14.6542V14.6542Z" fill="white"/>
<path fill-rule="evenodd" clip-rule="evenodd" d="M12 3.21951C7.15842 3.21951 3.21951 7.15842 3.21951 12C3.21951 16.8416 7.15842 20.7805 12 20.7805C16.8416 20.7805 20.7805 16.8416 20.7805 12C20.7805 7.15842 16.8416 3.21951 12 3.21951V3.21951ZM12.0002 2.24414C17.3884 2.24414 21.7563 6.61209 21.7563 12.0002C21.7563 17.3884 17.3884 21.7563 12.0002 21.7563C6.61209 21.7563 2.24414 17.3884 2.24414 12.0002C2.24414 6.61209 6.61209 2.24414 12.0002 2.24414Z" fill="white"/>
<path fill-rule="evenodd" clip-rule="evenodd" d="M12 2C17.514 2 22 6.48598 22 12C22 17.514 17.514 22 12 22C6.48598 22 2 17.514 2 12C2 6.48598 6.48598 2 12 2ZM12 21.5122C17.245 21.5122 21.5122 17.245 21.5122 12C21.5122 6.75496 17.245 2.4878 12 2.4878C6.75496 2.4878 2.4878 6.75496 2.4878 12C2.4878 17.245 6.75496 21.5122 12 21.5122ZM12 2.97561C16.9761 2.97561 21.0244 7.02393 21.0244 12C21.0244 16.9761 16.9761 21.0244 12 21.0244C7.02393 21.0244 2.97561 16.9761 2.97561 12C2.97561 7.02393 7.02393 2.97561 12 2.97561ZM12 20.5366C16.7071 20.5366 20.5366 16.7071 20.5366 12C20.5366 7.29291 16.7071 3.46341 12 3.46341C7.29291 3.46341 3.46341 7.29291 3.46341 12C3.46341 16.7071 7.29291 20.5366 12 20.5366Z" fill="white"/>
</svg>
