<svg width="20" height="20" viewBox="0 0 20 20" fill="none" xmlns="http://www.w3.org/2000/svg">
<path fill-rule="evenodd" clip-rule="evenodd" d="M16.7839 1.76228C17.5857 1.76228 18.2401 2.419 18.2401 3.22073V16.7792C18.2401 17.5833 17.5857 18.2377 16.7839 18.2377H3.22082C2.41674 18.2377 1.7647 17.5833 1.7647 16.7792V3.22073C1.7647 2.419 2.41674 1.76228 3.22082 1.76228H16.7839V1.76228ZM16.7839 0H3.22082C1.44216 0 0 1.4421 0 3.22076V16.7793C0 18.558 1.44216 20 3.22082 20H16.7839C18.5603 20 20.0024 18.558 20.0024 16.7793V3.22076C20.0024 1.4421 18.5603 0 16.7839 0Z" fill="white"/>
</svg>
