<svg width="22" height="22" viewBox="0 0 22 22" fill="none" xmlns="http://www.w3.org/2000/svg">
<path fill-rule="evenodd" clip-rule="evenodd" d="M11.3154 8.83282C11.1169 8.63272 10.8466 8.52012 10.5647 8.52012C10.2827 8.52012 10.0124 8.63272 9.81385 8.83282L4.9707 13.6866C4.77215 13.8868 4.50186 13.9994 4.21991 13.9994C3.93795 13.9994 3.66767 13.8868 3.46912 13.6866C3.05912 13.2741 3.05912 12.608 3.46912 12.1956L8.32285 7.34182C9.56142 6.10482 11.5679 6.10482 12.8065 7.34182L17.6602 12.1956C17.8556 12.3926 17.9657 12.6584 17.9669 12.9358C17.9685 13.2169 17.8581 13.487 17.6602 13.6866C17.4617 13.8868 17.1914 13.9994 16.9094 13.9994C16.6275 13.9994 16.3572 13.8868 16.1586 13.6866L11.3154 8.83282Z" fill="#34A8FF"/>
</svg>
