<svg width="21" height="21" viewBox="0 0 21 21" fill="none" xmlns="http://www.w3.org/2000/svg">
<path fill-rule="evenodd" clip-rule="evenodd" d="M10.6935 10.9241C13.1578 10.9241 15.1556 8.92639 15.1556 6.46206C15.1556 3.99773 13.1578 2 10.6935 2C8.22918 2 6.23145 3.99773 6.23145 6.46206C6.23391 8.92537 8.2302 10.9217 10.6935 10.9241ZM10.6935 3.48735C12.3364 3.48735 13.6682 4.81917 13.6682 6.46206C13.6682 8.10495 12.3364 9.43677 10.6935 9.43677C9.05062 9.43677 7.7188 8.10495 7.7188 6.46206C7.7188 4.81917 9.05062 3.48735 10.6935 3.48735Z" fill="white"/>
<path fill-rule="evenodd" clip-rule="evenodd" d="M10.6931 12.4111C6.9983 12.4152 4.0041 15.4094 4 19.1042C4 19.5149 4.33296 19.8479 4.74368 19.8479C5.1544 19.8479 5.48736 19.5149 5.48736 19.1042C5.48736 16.2292 7.81805 13.8985 10.6931 13.8985C13.5682 13.8985 15.8988 16.2292 15.8988 19.1042C15.8988 19.5149 16.2318 19.8479 16.6425 19.8479C17.0532 19.8479 17.3862 19.515 17.3862 19.1042C17.3821 15.4094 14.3879 12.4152 10.6931 12.4111L10.6931 12.4111Z" fill="white"/>
</svg>
