<svg width="32" height="32" viewBox="0 0 32 32" fill="none" xmlns="http://www.w3.org/2000/svg">
<mask id="mask0_2071_176" style="mask-type:alpha" maskUnits="userSpaceOnUse" x="0" y="0" width="32" height="32">
<rect width="32" height="32" fill="#D9D9D9"/>
</mask>
<g mask="url(#mask0_2071_176)">
<path d="M26.3999 30.1334L22.3665 26.1001C21.811 26.4556 21.2221 26.7612 20.5998 27.0167C19.9776 27.2723 19.3332 27.4778 18.6665 27.6334V24.9001C18.9776 24.789 19.2832 24.6778 19.5832 24.5667C19.8832 24.4556 20.1665 24.3223 20.4332 24.1667L15.9999 19.7334V26.6667L9.33318 20.0001H3.99985V12.0001H8.26652L1.86652 5.60007L3.73318 3.7334L28.2665 28.2667L26.3999 30.1334ZM26.1332 22.4001L24.1999 20.4667C24.5776 19.7778 24.861 19.0556 25.0498 18.3001C25.2387 17.5445 25.3332 16.7667 25.3332 15.9667C25.3332 13.8778 24.7221 12.0112 23.4999 10.3667C22.2776 8.72229 20.6665 7.61118 18.6665 7.0334V4.30007C21.4221 4.92229 23.6665 6.31673 25.3999 8.4834C27.1332 10.6501 27.9999 13.1445 27.9999 15.9667C27.9999 17.1445 27.8387 18.2778 27.5165 19.3667C27.1943 20.4556 26.7332 21.4667 26.1332 22.4001ZM21.6665 17.9334L18.6665 14.9334V10.6001C19.711 11.089 20.5276 11.8223 21.1165 12.8001C21.7054 13.7778 21.9999 14.8445 21.9999 16.0001C21.9999 16.3334 21.9721 16.6612 21.9165 16.9834C21.861 17.3056 21.7776 17.6223 21.6665 17.9334ZM15.9999 12.2667L12.5332 8.80007L15.9999 5.3334V12.2667ZM13.3332 20.2001V17.0667L10.9332 14.6667H6.66652V17.3334H10.4665L13.3332 20.2001Z" fill="#822727"/>
</g>
</svg>
