<svg width="32" height="32" viewBox="0 0 32 32" fill="none" xmlns="http://www.w3.org/2000/svg">
<mask id="mask0_2071_179" style="mask-type:alpha" maskUnits="userSpaceOnUse" x="0" y="0" width="32" height="32">
<rect width="32" height="32" fill="#D9D9D9"/>
</mask>
<g mask="url(#mask0_2071_179)">
<path d="M18.6667 27.6331V24.8998C20.6667 24.322 22.2778 23.2109 23.5001 21.5665C24.7223 19.922 25.3334 18.0554 25.3334 15.9665C25.3334 13.8776 24.7223 12.0109 23.5001 10.3665C22.2778 8.72203 20.6667 7.61092 18.6667 7.03314V4.2998C21.4223 4.92203 23.6667 6.31647 25.4001 8.48314C27.1334 10.6498 28.0001 13.1442 28.0001 15.9665C28.0001 18.7887 27.1334 21.2831 25.4001 23.4498C23.6667 25.6165 21.4223 27.0109 18.6667 27.6331ZM4.00006 19.9998V11.9998H9.33339L16.0001 5.33314V26.6665L9.33339 19.9998H4.00006ZM18.6667 21.3331V10.5998C19.7112 11.0887 20.5278 11.822 21.1167 12.7998C21.7056 13.7776 22.0001 14.8443 22.0001 15.9998C22.0001 17.1331 21.7056 18.1831 21.1167 19.1498C20.5278 20.1165 19.7112 20.8443 18.6667 21.3331ZM13.3334 11.7998L10.4667 14.6665H6.66673V17.3331H10.4667L13.3334 20.1998V11.7998Z" fill="white"/>
</g>
</svg>
